<mxfile host="app.diagrams.net" modified="2022-07-15T06:16:51.855Z" agent="5.0 (X11)" etag="v0w0LIvG0j2tEU9GKfzc" version="20.1.1" type="github">
  <diagram id="6wgh4p37ZJmnQRDNlt5Z" name="Page-1">
    <mxGraphModel dx="2031" dy="1081" grid="1" gridSize="10" guides="1" tooltips="1" connect="1" arrows="1" fold="1" page="1" pageScale="1" pageWidth="850" pageHeight="1100" math="0" shadow="0">
      <root>
        <mxCell id="0" />
        <mxCell id="1" parent="0" />
        <mxCell id="kvSuViRsgWenfTOcaBKt-1" value="ASR-1" style="rounded=1;whiteSpace=wrap;html=1;" vertex="1" parent="1">
          <mxGeometry x="80" y="90" width="120" height="60" as="geometry" />
        </mxCell>
        <mxCell id="kvSuViRsgWenfTOcaBKt-2" value="ASR-2" style="rounded=1;whiteSpace=wrap;html=1;" vertex="1" parent="1">
          <mxGeometry x="80" y="200" width="120" height="60" as="geometry" />
        </mxCell>
        <mxCell id="kvSuViRsgWenfTOcaBKt-4" value="" style="shape=link;html=1;rounded=0;" edge="1" parent="1">
          <mxGeometry width="100" relative="1" as="geometry">
            <mxPoint x="370" y="400" as="sourcePoint" />
            <mxPoint x="470" y="400" as="targetPoint" />
          </mxGeometry>
        </mxCell>
        <mxCell id="kvSuViRsgWenfTOcaBKt-5" value="ASR-1" style="rounded=1;whiteSpace=wrap;html=1;" vertex="1" parent="1">
          <mxGeometry x="990" y="90" width="120" height="60" as="geometry" />
        </mxCell>
        <mxCell id="kvSuViRsgWenfTOcaBKt-6" value="ASR-2" style="rounded=1;whiteSpace=wrap;html=1;" vertex="1" parent="1">
          <mxGeometry x="990" y="200" width="120" height="60" as="geometry" />
        </mxCell>
      </root>
    </mxGraphModel>
  </diagram>
</mxfile>
